<svg xmlns="http://www.w3.org/2000/svg" viewBox="0 0 700 420" role="img" aria-labelledby="title"><title id="title">Mural de comunidades afro</title><defs><linearGradient id="g" x1="0" y1="0" x2="1" y2="1"><stop stop-color="#7C3AED"/><stop offset="1" stop-color="#FB923C"/></linearGradient></defs><rect width="700" height="420" rx="38" fill="#10051f"/><path d="M0 320c94-85 177-91 285-31s217 68 415-35v166H0z" fill="#1E1B4B"/><circle cx="560" cy="90" r="88" fill="#FB923C" opacity=".9"/><g transform="translate(72 80)"><circle cx="90" cy="72" r="54" fill="#3B1E13"/><circle cx="240" cy="98" r="58" fill="#4A2517"/><circle cx="405" cy="68" r="52" fill="#2A160E"/><path d="M24 296c36-96 162-96 204 0" fill="#7C3AED"/><path d="M168 304c41-115 184-115 230 0" fill="#2563EB"/><path d="M333 300c35-100 156-100 200 0" fill="#0D9488"/><path d="M64 52c33-67 91-67 125 2M213 76c32-78 95-72 138-8M372 45c24-60 76-58 112-1" fill="none" stroke="#09090B" stroke-width="18" stroke-linecap="round"/><g fill="#FDE68A"><circle cx="72" cy="76" r="7"/><circle cx="109" cy="76" r="7"/><circle cx="220" cy="101" r="7"/><circle cx="261" cy="101" r="7"/><circle cx="390" cy="70" r="7"/><circle cx="424" cy="70" r="7"/></g></g><path d="M78 36h120M78 52h80M520 330h110M512 350h72" stroke="#FDE68A" stroke-width="8" stroke-linecap="round" opacity=".75"/><rect x="525" y="246" width="96" height="58" rx="18" fill="url(#g)" opacity=".9"/></svg>
