<svg xmlns="http://www.w3.org/2000/svg" viewBox="0 0 900 360" role="img" aria-labelledby="title"><title id="title">Escenario de evento cultural afro</title><defs><linearGradient id="bg" x1="0" y1="0" x2="1" y2="1"><stop stop-color="#1D0B2F"/><stop offset="1" stop-color="#7C2D12"/></linearGradient></defs><rect width="900" height="360" rx="34" fill="url(#bg)"/><circle cx="180" cy="86" r="74" fill="#FB923C" opacity=".9"/><circle cx="710" cy="70" r="110" fill="#7C3AED" opacity=".45"/><path d="M0 250h900v110H0z" fill="#080212" opacity=".76"/><path d="M122 255c66-94 147-94 216 0M530 255c74-112 173-109 246 0" fill="none" stroke="#FDE68A" stroke-width="7" stroke-linecap="round" opacity=".5"/><g transform="translate(340 95)"><path d="M35 164h170l-28 84H63z" fill="#1F2937"/><ellipse cx="120" cy="164" rx="92" ry="34" fill="#FDE68A"/><ellipse cx="120" cy="164" rx="64" ry="20" fill="#92400E" opacity=".45"/><path d="M73 196h94M65 225h110" stroke="#FB923C" stroke-width="9" stroke-linecap="round"/></g><g fill="none" stroke-linecap="round"><path d="M270 282c116-47 241-45 372 0" stroke="#A78BFA" stroke-width="10"/><path d="M260 315c141-46 273-40 400 4" stroke="#FB923C" stroke-width="10"/></g><g fill="#fff" opacity=".9"><circle cx="274" cy="92" r="5"/><circle cx="619" cy="126" r="4"/><circle cx="792" cy="166" r="5"/><circle cx="115" cy="176" r="4"/></g></svg>
