<svg xmlns="http://www.w3.org/2000/svg" viewBox="0 0 700 260" role="img" aria-labelledby="title"><title id="title">Historias de la comunidad AfroDigital</title><rect width="700" height="260" rx="30" fill="#130721"/><circle cx="566" cy="58" r="74" fill="#FB923C" opacity=".55"/><circle cx="114" cy="216" r="96" fill="#7C3AED" opacity=".45"/><path d="M58 170c85-84 173-87 264-8s184 76 320-34" stroke="#A78BFA" stroke-width="12" fill="none" stroke-linecap="round"/><path d="M54 209c106-61 218-57 337 12" stroke="#FB923C" stroke-width="12" fill="none" stroke-linecap="round"/><g transform="translate(280 45)"><rect width="130" height="150" rx="24" fill="#FEF3C7"/><path d="M25 48h80M25 77h72M25 106h52" stroke="#7C3AED" stroke-width="9" stroke-linecap="round"/><circle cx="103" cy="123" r="22" fill="#FB923C"/></g><g transform="translate(110 56)"><circle cx="54" cy="54" r="42" fill="#3B1E13"/><path d="M20 45c25-54 75-53 104 0" stroke="#080212" stroke-width="15" stroke-linecap="round"/><path d="M22 136c20-57 86-57 112 0" fill="#2563EB"/></g></svg>
